<svg xmlns="http://www.w3.org/2000/svg" viewBox="0 0 302.66 321.52"><defs><style>.cls-1,.cls-6{fill:#efc9a3;}.cls-2,.cls-5{fill:#fff;}.cls-2{stroke:#050606;}.cls-10,.cls-2,.cls-6,.cls-7,.cls-8,.cls-9{stroke-miterlimit:10;}.cls-10,.cls-2,.cls-6,.cls-7,.cls-8{stroke-width:0.67px;}.cls-3{fill:#3a2b24;opacity:0.77;}.cls-4{fill:#282423;}.cls-6{stroke:#d1b4a1;}.cls-7{fill:#2c160c;stroke:#321212;}.cls-10,.cls-8,.cls-9{fill:none;}.cls-8{stroke:#151515;}.cls-9{stroke:#553413;stroke-width:0.62px;}.cls-10{stroke:#999;}</style></defs><title>Asset 3</title><g id="Layer_2" data-name="Layer 2"><g id="Layer_1-2" data-name="Layer 1"><path class="cls-1" d="M166.39,52S156,31.21,146.72,29.77c-9.48-1.47-24.39-1.41-33.17,11.09s-11.33,35.33-11.72,36.89-1.56,8.39-1.17,12.69,1.68,13,3.16,16.16a70.29,70.29,0,0,1,3.26,9s1.61,5.83,2.92,7.58,11.14,12.37,14.26,13.84c3.29,1.55,6.34,3.76,7.21,3.76s11.64,3.11,24.3-.39,25-14.61,25.9-15.8,3.12-14.18,3.12-16.28-.74-9.81-.89-12.21-10.92-29.62-12-32.61S166.39,52,166.39,52"/><path class="cls-2" d="M.32,282.25c10.07-29.72,23.25-68,27.46-74.4,5.55-8.45,14.79-27.2,28-30.9s22.45-1.58,29.31-4.49S111,165.3,111,165.3s5.45,42.7,48.59,42.48,42.27-42.48,42.27-42.48,68.12,6,83.58,44.37c9.18,22.77,13.47,45.47,16.94,70.39"/><path class="cls-3" d="M130.82,64.75c.83.18,1.67.09,1.76-1.48s.46-3.25-.37-3.34-16.14-.74-17.25-.56-3.34.56-4.27,1.39-3.52,3.57-3.34,4.06a.78.78,0,0,0,.8.45c.09,0,4.74-1.92,5.84-1.92s2.14-.44,3.47-.22S130.82,64.75,130.82,64.75Z"/><path class="cls-3" d="M148.39,63.88a5,5,0,0,1-3,.33c-.5-.25-2.24-3.58-1.91-4.08s6.25-2.08,9.16-2.58a61,61,0,0,1,9.49-.92c1.17.17,5.42,2.5,5.83,2.71s1,.63.59,1.13-4.42-.51-5-.51-1.33-.49-2.08-.25S148.39,63.88,148.39,63.88Z"/><ellipse class="cls-4" cx="121.21" cy="77.43" rx="4.12" ry="5.16"/><ellipse class="cls-5" cx="121.49" cy="75.07" rx="0.28" ry="0.6"/><path class="cls-6" d="M124.63,137.53s2.77,15.05.35,21.47-6.47,14.5-6.82,15.64-1.07,8.59-1.07,8.59,9.43,14.11,14.13,16.35,11.32,6.48,17.5,7.27,23.14,1.82,30.95-3.17c0,0,1.77-18.16,2.62-19.94a46.14,46.14,0,0,0,2.33-8.13c.1-1,1-15.67-2-21.36a20.61,20.61,0,0,1-2.1-11.65l1.17-18s-20.84,18.74-35.52,17.46l-14.68-1.27Z"/><path class="cls-7" d="M140.39,29.12c13-.54,17.54,10,19.12,11.55s11.2,20,11.94,21.63S183,95.58,183.9,96.14s.36,11.85.89,12.6-2.31,13.34-2.76,15-1.18,14.5-1.51,18.36,4,18.67,4.27,23.21.37,13.35-2.28,18-5,41.74-1,49.36,30.15,18.55,30.15,18.55,2.65-5.3,4.31-8.94,16.23-14.91,19.54-17.89,12.59-21.21,13.25-31.81-8.61-33.46-8.61-33.46-14.24-23.85-13.25-27.83.33-16.56,0-18.88S215.3,79.92,213.32,73s-15.91-38.78-25.84-51.7S151.7-3.89,142.69,1.74s-5.9,27.38-5.9,27.38Z"/><path class="cls-7" d="M136.79,29.12s-.84-16.23,1-20.31,3-6.47,5.93-7.62-24,1.4-34.41,16.9S90.93,47,88.32,62.3s-6,31.29-7.18,34.22S67.45,123.1,65.65,130.28s-9.05,38.33-7.16,50.28,2.62,33.71,1.06,36.61,3.34,10,4.23,15.81,9.58,18.22,9.58,18.22,13.14,9.85,16.71,10.52,7.35-4.68,13.8-6.46,15.37-32.52,15.15-40.32-3.79-34.3-.67-40.76,4.13-8.46,6-12.69,2-23-.06-24.43-12.92-11.52-13.13-12.5-1.85-2.59-1.95-2.83-4.38-12.87-4.64-13.47-1.07-2.44-1.27-3.07-2.72-11.82-2.69-13.57a38,38,0,0,1,1-12.65c1.74-7,3-15.91,3.15-16.36S110.17,28.67,136.79,29.12Z"/><ellipse class="cls-4" cx="157.49" cy="73.41" rx="4.56" ry="5.71"/><ellipse class="cls-5" cx="157.8" cy="70.81" rx="0.31" ry="0.67"/><path class="cls-8" d="M125.33,112.13c2.89,4.23,10.71,7.49,15.37,6.64,4.91-.9,14.9-5.91,15.36-6.64"/><path class="cls-9" d="M137.33,83.74s-1.72,5.54-2.29,7.9a27.81,27.81,0,0,1-2.3,5.46s-3.89,4.15-2.94,5.87c.7,1.28,4.49,2.62,6.47,2.22a10.57,10.57,0,0,0,3.83-2"/><path class="cls-10" d="M247.61,257.82c-.85,7.58-1.46,15.7-1.74,24.29A308.69,308.69,0,0,0,247,320.28"/><path class="cls-10" d="M67.17,266.5a119.76,119.76,0,0,1,2.31,19.66,120.73,120.73,0,0,1-4,35.28"/><path class="cls-10" d="M33.62,270.54a171.82,171.82,0,0,0-19.08,33.55c-1.52,3.55-2.86,7-4,10.41"/><path class="cls-10" d="M276.52,242.21A40.29,40.29,0,0,1,284,265.92"/><path class="cls-10" d="M260.91,204.61c.95,0,9.7-.11,15,6.94a17.87,17.87,0,0,1,3.47,11"/></g></g></svg>