<svg xmlns="http://www.w3.org/2000/svg" viewBox="0 0 376.98 400.48"><defs><style>.cls-1,.cls-6{fill:#efc9a3;}.cls-2,.cls-5{fill:#fff;}.cls-2{stroke:#050606;}.cls-10,.cls-2,.cls-6,.cls-7,.cls-8,.cls-9{stroke-miterlimit:10;}.cls-10,.cls-2,.cls-6,.cls-7,.cls-8{stroke-width:0.83px;}.cls-3{fill:#3a2b24;opacity:0.77;}.cls-4{fill:#282423;}.cls-6{stroke:#d1b4a1;}.cls-7{fill:#2c160c;stroke:#321212;}.cls-10,.cls-8,.cls-9{fill:none;}.cls-8{stroke:#151515;}.cls-9{stroke:#553413;stroke-width:0.78px;}.cls-10{stroke:#999;}</style></defs><title>Asset 2</title><g id="Layer_2" data-name="Layer 2"><g id="Layer_1-2" data-name="Layer 1"><path class="cls-1" d="M207.25,64.76s-12.92-25.88-24.5-27.68c-11.81-1.83-30.38-1.75-41.32,13.81s-14.1,44-14.59,46-1.94,10.46-1.46,15.81,2.09,16.24,3.93,20.13A87.79,87.79,0,0,1,133.37,144s2,7.27,3.64,9.44,13.87,15.42,17.76,17.25c4.1,1.93,7.9,4.67,9,4.67s14.49,3.88,30.26-.47,31.17-18.2,32.25-19.69,3.9-17.66,3.9-20.27-.92-12.22-1.11-15.21-13.6-36.89-14.91-40.62-6.9-14.37-6.9-14.37"/><path class="cls-2" d="M.39,351.56c12.55-37,29-84.68,34.22-92.67C41.52,248.36,53,225,69.48,220.4s28-2,36.51-5.59,32.2-8.93,32.2-8.93,6.79,53.2,60.52,52.92,52.65-52.92,52.65-52.92,84.86,7.51,104.11,55.27c11.43,28.37,16.77,56.65,21.1,87.68"/><path class="cls-3" d="M162.94,80.65c1,.23,2.08.11,2.19-1.85s.58-4-.46-4.16-20.1-.92-21.48-.69-4.16.69-5.32,1.73-4.38,4.45-4.15,5.06a1,1,0,0,0,1,.56c.11,0,5.9-2.39,7.27-2.39s2.67-.55,4.32-.28S162.94,80.65,162.94,80.65Z"/><path class="cls-3" d="M184.83,79.57a6.36,6.36,0,0,1-3.73.41c-.63-.31-2.8-4.46-2.39-5.08s7.78-2.6,11.41-3.22S200.5,70.33,202,70.54s6.74,3.11,7.26,3.37,1.24.79.73,1.41-5.5-.63-6.23-.63-1.66-.62-2.59-.31S184.83,79.57,184.83,79.57Z"/><ellipse class="cls-4" cx="150.97" cy="96.44" rx="5.13" ry="6.43"/><ellipse class="cls-5" cx="151.32" cy="93.51" rx="0.35" ry="0.75"/><path class="cls-6" d="M155.23,171.3s3.45,18.75.43,26.74-8,18.06-8.49,19.48-1.33,10.7-1.33,10.7,11.74,17.58,17.6,20.37,14.1,8.07,21.8,9,28.83,2.27,38.55-3.95c0,0,2.2-22.62,3.27-24.83A57.6,57.6,0,0,0,230,218.73c.13-1.29,1.27-19.51-2.51-26.6a25.6,25.6,0,0,1-2.61-14.52l1.44-22.38S200.32,178.57,182,177l-18.28-1.59Z"/><path class="cls-7" d="M174.86,36.27c16.23-.68,21.85,12.49,23.82,14.39,2.14,2.05,13.95,24.9,14.87,26.94s14.43,41.45,15.51,42.15.45,14.76,1.11,15.69-2.89,16.62-3.44,18.67-1.47,18.07-1.88,22.87,5,23.25,5.32,28.9.45,16.64-2.85,22.41-6.19,52-1.24,61.49,37.55,23.11,37.55,23.11,3.31-6.61,5.37-11.15,20.22-18.56,24.34-22.28,15.68-26.41,16.51-39.61-10.73-41.68-10.73-41.68-17.74-29.71-16.5-34.66.41-20.63,0-23.52S268.17,99.55,265.7,90.91s-19.81-48.3-32.19-64.4S189-4.85,177.72,2.17s-7.34,34.1-7.34,34.1Z"/><path class="cls-7" d="M170.38,36.27s-1-20.22,1.3-25.29,3.77-8.06,7.38-9.5-29.85,1.75-42.85,21.05-23,36-26.2,55.07-7.52,39-8.94,42.62S84,153.33,81.77,162.27,70.5,210,72.85,224.9s3.27,42,1.32,45.6,4.17,12.48,5.28,19.69,11.92,22.7,11.92,22.7,16.37,12.26,20.81,13.09,9.16-5.82,17.2-8,19.14-40.51,18.87-50.22S143.53,225,147.41,217s5.15-10.54,7.43-15.81,2.54-28.61-.07-30.42-16.09-14.36-16.35-15.57-2.3-3.23-2.43-3.53-5.46-16-5.77-16.78-1.35-3-1.59-3.82-3.39-14.72-3.35-16.9-.93-7,1.24-15.76,3.79-19.82,3.93-20.38S137.23,35.71,170.38,36.27Z"/><ellipse class="cls-4" cx="196.17" cy="91.44" rx="5.68" ry="7.11"/><ellipse class="cls-5" cx="196.55" cy="88.19" rx="0.38" ry="0.83"/><path class="cls-8" d="M156.1,139.66c3.6,5.27,13.35,9.34,19.14,8.28,6.13-1.12,18.57-7.36,19.15-8.28"/><path class="cls-9" d="M171.05,104.3s-2.13,6.9-2.85,9.85a34.53,34.53,0,0,1-2.86,6.8s-4.85,5.16-3.67,7.31c.87,1.59,5.6,3.26,8.06,2.76a13.2,13.2,0,0,0,4.77-2.46"/><path class="cls-10" d="M308.41,321.13c-1.05,9.44-1.82,19.55-2.16,30.25a384.36,384.36,0,0,0,1.44,47.55"/><path class="cls-10" d="M83.66,331.94a148.21,148.21,0,0,1,2.88,24.49,150.26,150.26,0,0,1-5,43.94"/><path class="cls-10" d="M41.88,337a213.21,213.21,0,0,0-23.77,41.78c-1.89,4.42-3.56,8.75-5,13"/><path class="cls-10" d="M344.43,301.68A51.06,51.06,0,0,1,352.35,319a50.31,50.31,0,0,1,1.44,12.24"/><path class="cls-10" d="M325,254.86c1.18,0,12.08-.14,18.73,8.64A22.2,22.2,0,0,1,348,277.19"/></g></g></svg>